<?xml version="1.0" encoding="UTF-8"?>
<svg version="1.1" xmlns="http://www.w3.org/2000/svg" width="1000" height="300">
<path d="M0 0 C3.6330469 2.18230804 6.58057588 4.52021025 9.25 7.8125 C9.25 8.4725 9.25 9.1325 9.25 9.8125 C9.971875 9.07 10.69375 8.3275 11.4375 7.5625 C17.7388357 1.40119398 23.52632793 -2.50724694 32.45336914 -2.65649414 C33.52832642 -2.64090454 33.52832642 -2.64090454 34.625 -2.625 C35.74926392 -2.6103772 35.74926392 -2.6103772 36.89624023 -2.59545898 C45.43868269 -2.32181141 50.62372259 -0.18510032 56.625 6 C64.69021854 14.94475884 63.65118963 26.31605375 63.54296875 37.53515625 C63.53736498 39.24864834 63.53309858 40.96214528 63.53010559 42.67564392 C63.51871821 47.15881913 63.48930449 51.6416971 63.45599365 56.12475586 C63.42516023 60.71008281 63.41157204 65.29545836 63.39648438 69.88085938 C63.3644282 78.85820264 63.31330681 87.83532648 63.25 96.8125 C58.28377651 96.83715098 53.31758834 96.85533649 48.35131836 96.86743164 C46.66055684 96.8724719 44.96979971 96.87930405 43.27905273 96.88793945 C40.85399293 96.90001857 38.42899056 96.90573123 36.00390625 96.91015625 C34.86327477 96.91789818 34.86327477 96.91789818 33.69960022 96.92579651 C31.8826743 96.92599238 30.06586873 96.87447277 28.25 96.8125 C26.47802743 95.04052743 27.10662561 92.47111377 27.09228516 90.07104492 C27.08202301 88.8427446 27.07176086 87.61444427 27.06118774 86.34892273 C27.05774982 85.68824987 27.0543119 85.02757702 27.05076981 84.34688377 C27.03900627 82.28310321 27.0195593 80.21953434 26.99765015 78.15583801 C26.93595635 72.28682512 26.88201838 66.41783142 26.84863281 60.54858398 C26.82767729 56.96164108 26.79236348 53.37507969 26.74787521 49.78835487 C26.73371699 48.42128304 26.72499315 47.05414365 26.72182083 45.68700218 C26.71690811 43.77196521 26.69213306 41.85701044 26.66650391 39.94213867 C26.65841705 38.85261398 26.6503302 37.76308929 26.64199829 36.64054871 C26.20752727 33.50608296 25.35692261 32.12372854 23.25 29.8125 C20.81282742 30.08284634 20.81282742 30.08284634 18.25 30.8125 C15.92738576 34.29642136 15.98589996 35.71068616 15.94702148 39.82861328 C15.93037949 41.06644562 15.91373749 42.30427795 15.89659119 43.57962036 C15.88803119 44.93068402 15.87953352 46.28174808 15.87109375 47.6328125 C15.85492028 49.01619645 15.83774044 50.39956897 15.81959534 51.78292847 C15.77391929 55.42224865 15.73910395 59.061584 15.70739746 62.7010498 C15.65550342 68.53387652 15.59052401 74.36653591 15.51918221 80.1991539 C15.49628778 82.24051162 15.48005881 84.28184781 15.46446228 86.32327271 C15.45097244 87.55480072 15.4374826 88.78632874 15.42358398 90.05517578 C15.40931618 91.69040695 15.40931618 91.69040695 15.39476013 93.3586731 C15.25 95.8125 15.25 95.8125 14.25 96.8125 C11.66810554 96.91341475 9.113535 96.95221499 6.53125 96.9453125 C5.37163757 96.94674759 5.37163757 96.94674759 4.18859863 96.94821167 C2.55102456 96.94889341 0.91344781 96.94703957 -0.72412109 96.94287109 C-3.23931921 96.93752271 -5.75433873 96.94281626 -8.26953125 96.94921875 C-9.85677123 96.94855797 -11.4440111 96.9472768 -13.03125 96.9453125 C-13.78853394 96.94733673 -14.54581787 96.94936096 -15.3260498 96.95144653 C-20.63504868 96.92745132 -20.63504868 96.92745132 -21.75 95.8125 C-21.86300853 93.93178409 -21.90682586 92.04687535 -21.92358398 90.1628418 C-21.93707382 88.95456223 -21.95056366 87.74628265 -21.96446228 86.50138855 C-21.97490067 85.18479752 -21.98533905 83.86820648 -21.99609375 82.51171875 C-22.01158887 81.15508719 -22.02779791 79.79846361 -22.04469299 78.44184875 C-22.1155467 72.66844 -22.17551573 66.89495283 -22.22680664 61.12133789 C-22.25863533 57.59282143 -22.29992564 54.06451722 -22.34700203 50.53617287 C-22.3707849 48.53767208 -22.38375921 46.53905215 -22.39659119 44.54045105 C-22.42155418 42.71384697 -22.42155418 42.71384697 -22.44702148 40.8503418 C-22.45732895 39.778582 -22.46763641 38.7068222 -22.47825623 37.60258484 C-22.75116438 34.80054496 -23.18057986 33.13507447 -24.75 30.8125 C-27.15882687 29.81406224 -27.15882687 29.81406224 -29.75 29.8125 C-32.99849977 31.53476496 -32.99849977 31.53476496 -33.75 34.8125 C-33.86706233 36.82091665 -33.92675967 38.83285989 -33.95532227 40.84448242 C-33.97526749 42.08554245 -33.99521271 43.32660248 -34.01576233 44.60527039 C-34.03274527 45.9595019 -34.04962413 47.31373473 -34.06640625 48.66796875 C-34.08698228 50.05374259 -34.10797892 51.43951025 -34.12937927 52.82527161 C-34.18453301 56.46990953 -34.23397174 60.11460346 -34.28222656 63.75933838 C-34.33249056 67.4795835 -34.38815104 71.19974743 -34.44335938 74.91992188 C-34.55085899 82.21737913 -34.65232207 89.51490397 -34.75 96.8125 C-39.85863896 96.8371501 -44.96724359 96.85533607 -50.07592773 96.86743164 C-51.81519168 96.87247204 -53.55445136 96.8793043 -55.29370117 96.88793945 C-57.78825937 96.90001792 -60.28276173 96.90573108 -62.77734375 96.91015625 C-63.55963852 96.91531754 -64.34193329 96.92047882 -65.14793396 96.92579651 C-67.01567114 96.92599226 -68.88329204 96.87449694 -70.75 96.8125 C-72.63429892 94.92820108 -71.88322941 92.18955606 -71.89663696 89.68147278 C-71.89618378 88.79988998 -71.89573059 87.91830719 -71.89526367 87.01000977 C-71.89862228 86.08648712 -71.9019809 85.16296448 -71.90544128 84.2114563 C-71.91498199 81.14225947 -71.91689594 78.07311701 -71.91796875 75.00390625 C-71.92117912 72.88020301 -71.92454302 70.7565 -71.92805481 68.63279724 C-71.93405387 64.17470792 -71.93589391 59.716638 -71.93530273 55.25854492 C-71.93520106 49.53375762 -71.9488555 43.8090942 -71.96607494 38.08433628 C-71.9771696 33.69642053 -71.97922273 29.30853496 -71.97869301 24.92060661 C-71.97987688 22.80940257 -71.98432123 20.69819784 -71.99202538 18.58700752 C-72.00177444 15.63937724 -71.99896745 12.69201901 -71.99291992 9.74438477 C-71.99853943 8.8648262 -72.00415894 7.98526764 -72.00994873 7.07905579 C-71.97831522 1.04081522 -71.97831522 1.04081522 -69.75 -1.1875 C-67.16896694 -1.36252995 -64.69691837 -1.41912279 -62.1171875 -1.3828125 C-60.98943405 -1.37856766 -60.98943405 -1.37856766 -59.83889771 -1.37423706 C-57.43410422 -1.36302874 -55.02968119 -1.33792352 -52.625 -1.3125 C-50.99609912 -1.30247102 -49.36719242 -1.29334503 -47.73828125 -1.28515625 C-43.74204444 -1.26308735 -39.74608506 -1.22855351 -35.75 -1.1875 C-35.09 0.7925 -34.43 2.7725 -33.75 4.8125 C-32.863125 4.02875 -31.97625 3.245 -31.0625 2.4375 C-23.28129068 -4.43891754 -9.11060806 -4.36979391 0 0 Z " fill="#0B2A37" transform="translate(461.75,128.1875)"/>
<path d="M0 0 C4.96622349 -0.02465098 9.93241166 -0.04283649 14.89868164 -0.05493164 C16.58944316 -0.0599719 18.28020029 -0.06680405 19.97094727 -0.07543945 C22.39600707 -0.08751857 24.82100944 -0.09323123 27.24609375 -0.09765625 C28.38672523 -0.10539818 28.38672523 -0.10539818 29.55039978 -0.11329651 C31.3673257 -0.11349238 33.18413127 -0.06197277 35 0 C37.07837392 2.07837392 36.15418908 6.59773788 36.15771484 9.46362305 C36.16279556 10.35145981 36.16787628 11.23929657 36.17311096 12.15403748 C36.18384065 14.08946929 36.19245056 16.02491371 36.19923019 17.96036339 C36.21098619 21.02440822 36.23043195 24.08830998 36.25234985 27.15229797 C36.31406598 35.86670156 36.36797312 44.58109266 36.40136719 53.2956543 C36.42232368 58.62021428 36.45764058 63.94451733 36.50212479 69.26893044 C36.51628341 71.29864283 36.52500691 73.32840072 36.52817917 75.35816002 C36.53309282 78.20218088 36.55626456 81.04552179 36.58349609 83.8894043 C36.58048996 84.72652954 36.57748383 85.56365479 36.5743866 86.42614746 C36.64412316 91.33534163 37.27316119 94.74835373 40 99 C43.12942465 100.56471233 46.61082223 100.69701958 50 100 C52.34944875 98.35510712 53.79008457 97.03526824 54.37399864 94.15550041 C54.52688649 91.78128097 54.5484953 89.43555319 54.5300293 87.05639648 C54.53876068 86.15354919 54.54749207 85.2507019 54.55648804 84.32049561 C54.58087895 81.33715989 54.57745222 78.35451655 54.57421875 75.37109375 C54.58666091 73.29890255 54.6009943 71.22672191 54.61714172 69.15455627 C54.65520613 63.69932892 54.67036191 58.24428321 54.67993164 52.78894043 C54.6996592 44.05313324 54.75646524 35.31746487 54.80869484 26.58180428 C54.82406463 23.52672743 54.83123686 20.47171945 54.83683777 17.41661072 C54.84385291 15.54914313 54.85095375 13.68167586 54.8581543 11.81420898 C54.85736122 10.53538597 54.85736122 10.53538597 54.85655212 9.23072815 C54.8736385 5.90201852 54.93998621 3.18004137 56 0 C67.88 0 79.76 0 92 0 C92.09061002 12.70073714 92.16389408 25.40125723 92.20724869 38.10224533 C92.22806373 44.00074081 92.25626996 49.89900238 92.30175781 55.79736328 C92.34543278 61.49675016 92.36918279 67.195913 92.37950897 72.89545441 C92.38686159 75.06261976 92.40121893 77.22977379 92.42292023 79.39684296 C92.6931357 107.51566816 92.6931357 107.51566816 82 119 C81.04480469 120.03447266 81.04480469 120.03447266 80.0703125 121.08984375 C70.21048072 130.78715083 57.73287619 133.26824778 44.32177734 133.24658203 C33.21701454 133.06213432 24.08557348 130.45423253 15 124 C13.9275 123.2575 12.855 122.515 11.75 121.75 C4.17325968 114.17325968 -0.3220463 104.28530734 -0.3732605 93.595047 C-0.35708176 92.22155342 -0.35708176 92.22155342 -0.34057617 90.8203125 C-0.34101425 89.83403366 -0.34145233 88.84775482 -0.34190369 87.83158875 C-0.33982614 84.59585253 -0.31654371 81.36064487 -0.29296875 78.125 C-0.28736913 75.87199181 -0.28310076 73.61897995 -0.28010559 71.3659668 C-0.26868573 65.45418095 -0.23924302 59.54261841 -0.20599365 53.63092041 C-0.17523116 47.59121725 -0.16158705 41.55147778 -0.14648438 35.51171875 C-0.11437068 23.67438139 -0.06320886 11.83720931 0 0 Z " fill="#0B2A37" transform="translate(851,94)"/>
<path d="M0 0 C12.54 0 25.08 0 38 0 C39.87935462 3.75870924 40.59575255 6.42738656 41.32861328 10.51269531 C41.44594818 11.15701508 41.56328308 11.80133484 41.68417358 12.46517944 C42.06873974 14.58515166 42.44456569 16.70657348 42.8203125 18.828125 C43.08595878 20.30224146 43.35215093 21.77625964 43.61886597 23.25018311 C44.31805657 27.12240811 45.00983596 30.99592142 45.70007324 34.86975098 C46.40624914 38.82543147 47.11943588 42.77984686 47.83203125 46.734375 C49.22821354 54.48836328 50.61656781 62.24372681 52 70 C52.21884354 68.77304413 52.21884354 68.77304413 52.44210815 67.52130127 C53.81862302 59.81016793 55.2010745 52.10012772 56.59019279 44.39125443 C57.30412995 40.42808134 58.01577069 36.46452452 58.72216797 32.5 C59.4040557 28.67352011 60.0919693 24.84816833 60.78406143 21.02352142 C61.0469533 19.56468965 61.30767732 18.10546549 61.56618881 16.64585114 C61.92884401 14.60038248 62.29920562 12.556449 62.67138672 10.51269531 C62.88012421 9.34909485 63.08886169 8.18549438 63.30392456 6.9866333 C64 4 64 4 66 0 C78.21 0 90.42 0 103 0 C103 5.41513421 102.77028281 8.75919588 101.4621582 13.79418945 C101.29748141 14.43758459 101.13280462 15.08097973 100.96313763 15.74387169 C100.41702094 17.86916573 99.85896864 19.99112848 99.30078125 22.11328125 C98.90909992 23.62748144 98.51816611 25.14187516 98.12792969 26.65644836 C97.08192261 30.70758748 96.02561066 34.75597284 94.96725845 38.80390167 C93.87536009 42.98732898 92.79301913 47.17322692 91.7097168 51.35888672 C89.76027871 58.88545683 87.80281569 66.40990981 85.8413496 73.93335342 C83.8357305 81.62708443 81.83910329 89.32313262 79.84375 97.01953125 C76.90517716 108.34880351 73.95590127 119.67523644 71 131 C58.13 131 45.26 131 32 131 C30.12403256 125.37209769 28.40683287 120.00995423 26.96630859 114.29760742 C26.78525574 113.58358765 26.60420288 112.86956787 26.41766357 112.13391113 C25.8246729 109.7919043 25.23651462 107.44871375 24.6484375 105.10546875 C24.22616586 103.43330306 23.80360294 101.76121091 23.38076782 100.08918762 C22.26659216 95.67989059 21.15656287 91.26955982 20.04736328 86.85900879 C18.9521917 82.5075509 17.85284496 78.15714837 16.75390625 73.80664062 C15.4515903 68.65021002 14.15089783 63.49338732 12.85662842 58.33493042 C12.42753953 56.62481474 11.99844206 54.9147012 11.56933594 53.20458984 C11.3581953 52.3630731 11.14705467 51.52155636 10.92951584 50.65453911 C9.63452789 45.5012326 8.32449836 40.35201074 7.00239372 35.20559597 C6.14929028 31.88156988 5.30240173 28.55597669 4.4563179 25.23015785 C4.05797967 23.67115164 3.65672254 22.11288786 3.25233078 20.5554409 C2.69528447 18.40902233 2.14857218 16.26020847 1.60400391 14.1105957 C1.29298737 12.90119827 0.98197083 11.69180084 0.66152954 10.445755 C0 7 0 7 0 0 Z " fill="#0B2A37" transform="translate(8,94)"/>
<path d="M0 0 C0.73541016 0.00202423 1.47082031 0.00404846 2.22851562 0.00613403 C2.97939453 0.00517731 3.73027344 0.00422058 4.50390625 0.00323486 C6.09440189 0.00255315 7.6849003 0.00440682 9.27539062 0.00857544 C11.71816217 0.01392386 14.16074984 0.00863019 16.60351562 0.00222778 C18.1451827 0.00288857 19.68684966 0.00416973 21.22851562 0.00613403 C21.96392578 0.0041098 22.69933594 0.00208557 23.45703125 0 C28.61356402 0.02399493 28.61356402 0.02399493 29.72851562 1.13894653 C29.84146027 2.98372898 29.88533478 4.8327781 29.90209961 6.68093872 C29.91558945 7.86596985 29.92907928 9.05100098 29.94297791 10.27194214 C29.95341629 11.56352234 29.96385468 12.85510254 29.97460938 14.18582153 C29.99911302 16.20030619 30.02362791 18.21479078 30.04880619 20.22926712 C30.1096547 25.21339639 30.16015255 30.19762135 30.20532227 35.18191528 C30.23719402 38.64559916 30.27849741 42.10906871 30.32551765 45.57257843 C30.3492565 47.5316998 30.3622627 49.49094171 30.37510681 51.45016479 C30.40006981 53.24662445 30.40006981 53.24662445 30.42553711 55.07937622 C30.43584457 56.13115051 30.44615204 57.1829248 30.45677185 58.26657104 C30.76319738 61.50553829 31.3466078 64.75703871 33.72851562 67.13894653 C36.68656136 67.47235124 36.68656136 67.47235124 39.72851562 67.13894653 C42.05152021 63.65443965 41.98805128 62.2560033 42.015625 58.13870239 C42.03574646 56.28679543 42.03574646 56.28679543 42.05627441 54.3974762 C42.05883743 53.73855314 42.06140045 53.07963009 42.06404114 52.40073967 C42.07233205 50.33725824 42.09283613 48.274219 42.11657715 46.21086121 C42.17298209 41.08808699 42.20823394 35.96520563 42.24420166 30.84225464 C42.27541197 26.51043002 42.3145708 22.17882091 42.36445618 17.84716988 C42.38456195 15.81190775 42.39285045 13.77681119 42.40075684 11.74147034 C42.4208783 9.89429161 42.4208783 9.89429161 42.44140625 8.00979614 C42.44869751 6.92186264 42.45598877 5.83392914 42.46350098 4.71302795 C42.72851562 2.13894653 42.72851562 2.13894653 44.72851562 0.13894653 C47.29778593 -0.04835099 49.75725539 -0.11679989 52.32617188 -0.09152222 C53.45036781 -0.09083488 53.45036781 -0.09083488 54.59727478 -0.09013367 C56.18180932 -0.08711158 57.76634089 -0.07922653 59.35083008 -0.06686401 C61.78477421 -0.0486003 64.21833824 -0.04635436 66.65234375 -0.04660034 C68.18945644 -0.04168547 69.72656653 -0.03585729 71.26367188 -0.02902222 C71.99594498 -0.02790939 72.72821808 -0.02679657 73.48268127 -0.02565002 C78.61246324 0.02289415 78.61246324 0.02289415 79.72851562 1.13894653 C79.82912833 4.11656023 79.86466455 7.07101821 79.85791016 10.04910278 C79.86053864 11.45142654 79.86053864 11.45142654 79.86322021 12.88208008 C79.86764036 15.98855416 79.86470017 19.09497182 79.86132812 22.20144653 C79.86200112 24.34996553 79.8629711 26.49848444 79.86422729 28.64700317 C79.86570449 33.15636925 79.86354902 37.66571556 79.85888672 42.17507935 C79.85318942 47.96943231 79.85646831 53.76373895 79.86245918 59.55809021 C79.86606421 63.99657544 79.86492648 68.4350496 79.86233139 72.87353516 C79.86166196 75.01068121 79.8624911 77.14782825 79.86481094 79.28497314 C79.86733652 82.2662728 79.86349822 85.24749633 79.85791016 88.22879028 C79.85993439 89.12129486 79.86195862 90.01379944 79.86404419 90.93334961 C79.84277795 97.02468421 79.84277795 97.02468421 78.72851562 98.13894653 C76.13492241 98.22746182 73.56811871 98.25420598 70.97460938 98.23660278 C70.19916275 98.23518784 69.42371613 98.23377289 68.62477112 98.23231506 C66.13848068 98.22669999 63.65227902 98.214145 61.16601562 98.20144653 C59.4843763 98.19643347 57.80273556 98.19187023 56.12109375 98.18777466 C51.99019996 98.17672566 47.85937287 98.15945098 43.72851562 98.13894653 C43.06851563 96.81894653 42.40851562 95.49894653 41.72851562 94.13894653 C41.19742188 94.48828247 40.66632812 94.83761841 40.11914062 95.19754028 C39.41273438 95.65257935 38.70632813 96.10761841 37.97851562 96.57644653 C37.28242187 97.02890747 36.58632813 97.48136841 35.86914062 97.94754028 C29.37008146 101.56471737 20.68208342 101.05977751 13.64257812 99.42019653 C4.84467113 96.43131854 0.11483525 92.54964694 -4.29101562 84.32254028 C-6.32686176 79.78852439 -6.41501258 75.54823464 -6.40087891 70.63235474 C-6.40263123 69.88235199 -6.40438354 69.13234924 -6.40618896 68.35961914 C-6.41058233 65.88629834 -6.40767924 63.41304928 -6.40429688 60.93972778 C-6.40497042 59.22148118 -6.40594088 57.50323468 -6.40719604 55.7849884 C-6.40866943 52.18804007 -6.4065292 48.59111659 -6.40185547 44.99417114 C-6.39614551 40.37359049 -6.39944745 35.75306776 -6.40542793 31.1324892 C-6.40903227 27.58701639 -6.40789578 24.04155743 -6.40530014 20.49608421 C-6.40463118 18.79155661 -6.40545821 17.08702776 -6.40777969 15.3825016 C-6.41030552 13.00741842 -6.40646724 10.63243076 -6.40087891 8.25735474 C-6.40290314 7.54722733 -6.40492737 6.83709991 -6.40701294 6.10545349 C-6.38089087 0.14439703 -5.93159976 0.02760155 0 0 Z " fill="#0B2A37" transform="translate(635.271484375,126.86105346679688)"/>
<path d="M0 0 C7.91664117 4.31816791 12.31467888 9.32525379 15.4375 17.875 C17.82578799 26.21347669 17.71171493 34.43265349 17.66796875 43.03125 C17.66677479 44.58540814 17.66632425 46.13956701 17.6665802 47.69372559 C17.66502471 50.93128046 17.6568012 54.16872328 17.64331055 57.40625 C17.62620793 61.56372284 17.62249994 65.72107427 17.62325573 69.87857819 C17.62298464 73.07834031 17.61751515 76.27807571 17.61025429 79.47782898 C17.60706672 81.01209817 17.60510001 82.54637038 17.60436058 84.0806427 C17.60220436 86.21332035 17.59347929 88.3458661 17.58276367 90.47851562 C17.57895187 91.69269165 17.57514008 92.90686768 17.57121277 94.15783691 C17.4375 96.875 17.4375 96.875 16.4375 97.875 C13.85560554 97.97591475 11.301035 98.01471499 8.71875 98.0078125 C7.55913757 98.00924759 7.55913757 98.00924759 6.37609863 98.01071167 C4.73852456 98.01139341 3.10094781 98.00953957 1.46337891 98.00537109 C-1.05181921 98.00002271 -3.56683873 98.00531626 -6.08203125 98.01171875 C-7.66927123 98.01105797 -9.2565111 98.0097768 -10.84375 98.0078125 C-11.60103394 98.00983673 -12.35831787 98.01186096 -13.1385498 98.01394653 C-18.44754868 97.98995132 -18.44754868 97.98995132 -19.5625 96.875 C-19.67032018 94.96349816 -19.70877564 93.04805103 -19.72021484 91.13354492 C-19.73047699 89.9052446 -19.74073914 88.67694427 -19.75131226 87.41142273 C-19.75475018 86.75074987 -19.7581881 86.09007702 -19.76173019 85.40938377 C-19.77349373 83.34560321 -19.7929407 81.28203434 -19.81484985 79.21833801 C-19.87654365 73.34932512 -19.93048162 67.48033142 -19.96386719 61.61108398 C-19.98482271 58.02414108 -20.02013652 54.43757969 -20.06462479 50.85085487 C-20.07878301 49.48378304 -20.08750685 48.11664365 -20.09067917 46.74950218 C-20.09559189 44.83446521 -20.12036694 42.91951044 -20.14599609 41.00463867 C-20.15408295 39.91511398 -20.1621698 38.82558929 -20.17050171 37.70304871 C-20.60497273 34.56858296 -21.45557739 33.18622854 -23.5625 30.875 C-26.50341587 31.05915432 -26.50341587 31.05915432 -29.5625 31.875 C-31.85151734 35.11320326 -31.83402282 38.13987093 -31.88134766 42.02050781 C-31.90121735 43.26149231 -31.92108704 44.50247681 -31.94155884 45.78106689 C-31.95343424 47.13008445 -31.96509715 48.47910389 -31.9765625 49.828125 C-31.99527907 51.21247506 -32.01485285 52.59681378 -32.0352478 53.98114014 C-32.08652362 57.61752627 -32.12617346 61.25394937 -32.16339111 64.89050293 C-32.20345944 68.60417759 -32.2544327 72.31770151 -32.3046875 76.03125 C-32.40242163 83.31244252 -32.48197136 90.59351538 -32.5625 97.875 C-44.4425 97.875 -56.3225 97.875 -68.5625 97.875 C-68.58504916 85.24504197 -68.603414 72.6150972 -68.61431217 59.98512363 C-68.61954146 54.12117836 -68.62663994 48.25724751 -68.63793945 42.39331055 C-68.6487667 36.73938288 -68.65477649 31.08546913 -68.65737724 25.43153191 C-68.65923179 23.2692639 -68.66285295 21.10699669 -68.66823006 18.94473457 C-68.67543833 15.92741343 -68.67649103 12.91015057 -68.67602539 9.89282227 C-68.67962067 8.9893959 -68.68321594 8.08596954 -68.68692017 7.15516663 C-68.67655216 0.98905216 -68.67655216 0.98905216 -67.5625 -0.125 C-65.04155924 -0.21347743 -62.54819107 -0.24027301 -60.02734375 -0.22265625 C-58.89746788 -0.22053383 -58.89746788 -0.22053383 -57.74476624 -0.21836853 C-55.3298044 -0.21275376 -52.91493399 -0.20019883 -50.5 -0.1875 C-48.86653779 -0.1824869 -47.23307414 -0.17792366 -45.59960938 -0.17382812 C-41.58720415 -0.16277954 -37.57486759 -0.14550506 -33.5625 -0.125 C-32.9025 1.855 -32.2425 3.835 -31.5625 5.875 C-30.74845703 5.24271484 -30.74845703 5.24271484 -29.91796875 4.59765625 C-29.20253906 4.04980469 -28.48710937 3.50195312 -27.75 2.9375 C-27.04230469 2.39222656 -26.33460938 1.84695312 -25.60546875 1.28515625 C-19.43304046 -2.97535352 -6.91974577 -2.32481577 0 0 Z " fill="#0B2B37" transform="translate(269.5625,127.125)"/>
<path d="M0 0 C9.76475535 8.10007772 14.72024118 16.7401383 16.375 29.328125 C17.81459154 47.39499884 18.28510328 66.09318322 7.16015625 81.34375 C0.1232326 89.18931769 -10.8619368 93.7434325 -21.25927734 94.36669922 C-35.15430212 94.98941939 -47.88305263 94.02512164 -59.3125 85.25 C-67.50107455 77.65867273 -71.77763053 68.45725374 -72.60302734 57.33520508 C-72.62929761 55.98015056 -72.64402436 54.6248332 -72.6484375 53.26953125 C-72.6550943 52.53482101 -72.6617511 51.80011078 -72.66860962 51.0431366 C-72.6786647 49.49777703 -72.68342887 47.95237467 -72.68310547 46.40698242 C-72.6874578 44.08501629 -72.7237925 41.76498793 -72.76171875 39.44335938 C-72.857592 26.8117848 -71.3826965 14.80218762 -62.3125 5.25 C-61.79945313 4.70859375 -61.28640625 4.1671875 -60.7578125 3.609375 C-45.81387812 -10.54803652 -16.58100847 -11.45028132 0 0 Z M-34.3125 27.25 C-36.85395958 33.977393 -36.46579605 41.59922055 -36.1875 48.6875 C-36.16598877 49.45650635 -36.14447754 50.2255127 -36.12231445 51.01782227 C-35.83668051 55.90896867 -35.03520607 58.75229265 -31.3125 62.25 C-28.3125 63.08333333 -28.3125 63.08333333 -25.3125 62.25 C-20.7881928 58.09252852 -20.44560134 53.86250081 -20.14453125 47.953125 C-19.87899134 37.40264107 -19.87899134 37.40264107 -22.3125 27.25 C-26.40625708 23.28745308 -30.24329875 23.21550409 -34.3125 27.25 Z " fill="#0B2A37" transform="translate(605.3125,132.75)"/>
<path d="M0 0 C9.85634518 6.46035007 14.83171942 14.57185355 17.50097656 25.90136719 C18.46609251 31.53681206 18.53523533 37.12299452 18.48095703 42.83056641 C18.46485649 44.83825571 18.4809077 46.84393323 18.5 48.8515625 C18.4580837 63.0052986 16.0101203 73.32689195 6.71484375 84.08984375 C-5.53770228 94.59202606 -19.21965809 96.35742836 -34.91015625 95.33984375 C-47.42433696 93.54605035 -56.13852733 88.33996014 -64.03515625 78.58984375 C-71.26632466 68.73760915 -71.11263807 57.02027317 -71.16015625 45.27734375 C-71.18078125 44.03017578 -71.20140625 42.78300781 -71.22265625 41.49804688 C-71.27901643 27.95046894 -69.29819021 15.78567228 -60.1640625 5.34375 C-45.17821488 -9.14360789 -17.40978466 -9.93175635 0 0 Z M-31.09765625 27.15234375 C-35.13504334 32.0250523 -34.13179431 38.14315732 -34.16015625 44.15234375 C-34.18078125 45.23322266 -34.20140625 46.31410156 -34.22265625 47.42773438 C-34.25071654 53.14151052 -34.20980077 57.43203914 -30.91015625 62.33984375 C-29.74540563 63.71756137 -29.74540563 63.71756137 -26.53515625 63.65234375 C-22.91312381 63.72397997 -22.91312381 63.72397997 -21.03515625 61.52734375 C-18.19607927 56.0069163 -18.68868517 50.5343719 -18.66015625 44.46484375 C-18.62921875 42.83095703 -18.62921875 42.83095703 -18.59765625 41.1640625 C-18.5925 40.11089844 -18.58734375 39.05773437 -18.58203125 37.97265625 C-18.57268555 37.01246582 -18.56333984 36.05227539 -18.55371094 35.06298828 C-18.97975635 31.80811807 -19.97764776 29.97482531 -21.91015625 27.33984375 C-25.5554292 24.90966178 -27.57401167 24.23275252 -31.09765625 27.15234375 Z " fill="#0B2A37" transform="translate(364.91015625,131.66015625)"/>
<path d="M0 0 C9.41714371 6.26963476 15.35027976 14.26352679 18.44140625 25.16796875 C20.20810178 34.29944323 19.37990023 44.05729831 19.0859375 53.3046875 C16.64626253 54.52452498 15.08689226 54.42520277 12.36083984 54.41821289 C11.37997406 54.41813736 10.39910828 54.41806183 9.38851929 54.41798401 C8.32702667 54.41282272 7.26553406 54.40766144 6.171875 54.40234375 C5.08709869 54.4009288 4.00232239 54.39951385 2.88467407 54.39805603 C-0.5899325 54.39244552 -4.06447531 54.37989122 -7.5390625 54.3671875 C-9.89062407 54.36217385 -12.24218665 54.35761071 -14.59375 54.35351562 C-20.36720936 54.34247268 -26.14063138 54.32572429 -31.9140625 54.3046875 C-29.99014601 59.61880244 -29.99014601 59.61880244 -25.9140625 63.3046875 C-23.14551817 63.46915548 -20.56351662 63.12613398 -17.9140625 62.3046875 C-16.68878302 60.35447667 -16.68878302 60.35447667 -15.9140625 58.3046875 C-11.94960971 57.0526611 -8.8383351 57.46629148 -4.80859375 58.265625 C-3.66068359 58.48992187 -2.51277344 58.71421875 -1.33007812 58.9453125 C0.45366211 59.30882812 0.45366211 59.30882812 2.2734375 59.6796875 C3.47419922 59.91429687 4.67496094 60.14890625 5.91210938 60.390625 C14.77170139 62.14756944 14.77170139 62.14756944 17.0859375 63.3046875 C18.02806272 70.46483917 14.06580529 76.15156472 10.3984375 81.9921875 C0.74895067 91.64167433 -10.423249 95.63891261 -23.9140625 95.7421875 C-36.48705008 95.55364543 -48.07215563 93.35203993 -57.6875 84.7109375 C-69.43274125 72.07138854 -70.61848394 54.75199279 -70.19921875 38.34375 C-69.63727244 25.82104683 -66.70947867 12.8197488 -57.2109375 3.97265625 C-40.84072403 -7.91523686 -17.74369658 -10.32274037 0 0 Z M-30.2265625 27.4921875 C-32.34280896 30.4726132 -32.34280896 30.4726132 -31.9140625 35.3046875 C-27.6240625 35.3046875 -23.3340625 35.3046875 -18.9140625 35.3046875 C-19.28075972 30.59746192 -19.28075972 30.59746192 -21.1640625 26.3671875 C-24.88526993 24.10788299 -27.11887422 24.55248237 -30.2265625 27.4921875 Z " fill="#0B2A37" transform="translate(174.9140625,131.6953125)"/>
<path d="M0 0 C1.01006104 0.00757324 2.02012207 0.01514648 3.06079102 0.02294922 C15.36521578 0.29468392 24.53780719 3.43102692 33.33984375 12.1328125 C39.60611346 18.96595746 41.56420789 26.27308993 41.625 35.4375 C41.13 36.4275 41.13 36.4275 40.625 37.4375 C36.10434572 37.486877 31.58384783 37.52320823 27.06298828 37.54736328 C25.52454902 37.55743118 23.98612893 37.57108646 22.44775391 37.58837891 C20.23855867 37.61259317 18.02961605 37.62397491 15.8203125 37.6328125 C15.13067413 37.64313507 14.44103577 37.65345764 13.73049927 37.66409302 C12.02699094 37.66449478 10.32414057 37.55941026 8.625 37.4375 C6.39577045 35.20827045 5.74371047 33.34614722 4.625 30.4375 C4.295 30.1075 3.965 29.7775 3.625 29.4375 C1.28555264 29.72480055 -1.0489143 30.05686779 -3.375 30.4375 C-3.705 31.7575 -4.035 33.0775 -4.375 34.4375 C0.5546543 37.18764476 5.31566553 38.47197017 10.75 39.75 C22.0456112 42.57091914 34.53596287 46.46431382 40.9375 56.9375 C44.44614636 64.21469246 44.78350123 72.37126711 42.4375 80.125 C39.05518038 88.93764929 34.08311234 93.29654917 25.625 97.4375 C11.32840374 103.32568147 -6.81715511 103.5337609 -21.375 98.4375 C-29.43688489 94.88831921 -36.29589745 90.04272023 -40.46875 82.125 C-42.18353953 77.03976207 -41.92609061 71.72796988 -41.375 66.4375 C-39.46210382 64.52460382 -35.95275917 65.27374173 -33.34765625 65.26953125 C-32.29148354 65.26453865 -32.29148354 65.26453865 -31.213974 65.25944519 C-29.72183894 65.25437345 -28.2296925 65.25203694 -26.73754883 65.25219727 C-24.45049393 65.25001241 -22.16392247 65.23186451 -19.87695312 65.21289062 C-18.42968916 65.20995646 -16.98242289 65.20797182 -15.53515625 65.20703125 C-14.84865494 65.19984573 -14.16215363 65.19266022 -13.45484924 65.18525696 C-8.60382369 65.20867631 -8.60382369 65.20867631 -6.375 67.4375 C-6.25125 68.0975 -6.1275 68.7575 -6 69.4375 C-5.54283884 71.55035939 -5.54283884 71.55035939 -3.75 72.75 C-0.42901826 73.71133682 2.27117202 73.08246692 5.625 72.4375 C5.625 71.1175 5.625 69.7975 5.625 68.4375 C3.97564453 68.07398438 3.97564453 68.07398438 2.29296875 67.703125 C-28.56087556 60.77211294 -28.56087556 60.77211294 -37.21875 48.46484375 C-41.42954979 41.08171845 -41.39743988 32.73018229 -40.375 24.4375 C-39.2076183 20.67490321 -37.60795256 17.66649262 -35.375 14.4375 C-34.818125 13.53 -34.26125 12.6225 -33.6875 11.6875 C-24.35114536 2.60347927 -12.65035321 -0.13299495 0 0 Z " fill="#0B2A37" transform="translate(763.375,125.5625)"/>
<path d="M0 0 C11.55 0 23.1 0 35 0 C36 1 36 1 36.12304783 3.15330601 C36.12166514 4.58992037 36.12166514 4.58992037 36.12025452 6.05555725 C36.12162918 7.15077194 36.12300385 8.24598663 36.12442017 9.37438965 C36.11902725 11.19239075 36.11902725 11.19239075 36.11352539 13.04711914 C36.11367142 14.31522934 36.11381744 15.58333954 36.1139679 16.88987732 C36.11425585 20.37732422 36.10835945 23.86473701 36.10139394 27.35217595 C36.09516007 30.99303723 36.09455658 34.63389922 36.09336853 38.27476501 C36.09025531 45.17376972 36.08204205 52.07275865 36.07201904 58.9717564 C36.06085761 66.82410685 36.05534738 74.67645803 36.05032361 82.52881444 C36.03985943 98.68588699 36.02151406 114.84293781 36 131 C24.12 131 12.24 131 0 131 C0 87.77 0 44.54 0 0 Z " fill="#0C2A38" transform="translate(954,94)"/>
</svg>
